<svg width="184" height="130" viewBox="0 0 184 130" fill="none" xmlns="http://www.w3.org/2000/svg">
<path fill-rule="evenodd" clip-rule="evenodd" d="M25 0C11.1929 0 0 11.1929 0 25V105C0 118.807 11.1929 130 25 130H159C172.807 130 184 118.807 184 105V25C184 11.1929 172.807 0 159 0H25ZM92.5 109C117.077 109 137 89.0767 137 64.5C137 39.9233 117.077 20 92.5 20C67.9233 20 48 39.9233 48 64.5C48 89.0767 67.9233 109 92.5 109Z" fill="#F9FDFF"/>
<path d="M111 55.8397C117.667 59.6887 117.667 69.3113 111 73.1603L89.25 85.7176C82.5833 89.5666 74.25 84.7554 74.25 77.0574L74.25 51.9426C74.25 44.2446 82.5833 39.4334 89.25 43.2824L111 55.8397Z" fill="#F9FDFF"/>
</svg>
