<svg width="627" height="614" viewBox="0 0 627 614" fill="none" xmlns="http://www.w3.org/2000/svg">
<path d="M272.5 155.5L375.124 271.75H169.876L272.5 155.5Z" fill="white"/>
<path d="M262.715 582.3C266.534 592.858 281.466 592.858 285.285 582.3L385.097 306.331C387.926 298.509 382.131 290.25 373.812 290.25H174.188C165.869 290.25 160.074 298.509 162.903 306.331L262.715 582.3Z" fill="white"/>
<path d="M299 584L406.5 292H546L299 584Z" fill="white"/>
<path d="M453.5 163.5L413 274.5H546L453.5 163.5Z" fill="white"/>
<path d="M439.5 156L397.5 267L293.5 156H439.5Z" fill="white"/>
<path d="M247 583.5L139.5 291.5H0L247 583.5Z" fill="white"/>
<path d="M92.5 163L133 274H0L92.5 163Z" fill="white"/>
<path d="M106.5 155.5L148.5 266.5L252.5 155.5H106.5Z" fill="white"/>
<path d="M424 84.5C481.603 75.2541 497.955 55.4888 505 0C513.478 56.6176 531.545 75.4503 589 84.5C539.911 90.6437 520.604 106.847 505 165C495.245 108.029 476.742 91.317 424 84.5Z" fill="#E7BB4C"/>
<path d="M565 175.5C585.598 171.904 592.662 164.939 597.5 144C603.589 167.876 609.91 175.28 627 175.5C605.435 181.551 599.622 189.338 597.5 209C591.583 185.451 584.058 178.749 565 175.5Z" fill="#E7BB4C"/>
</svg>
