<svg width="668" height="684" viewBox="0 0 668 684" fill="none" xmlns="http://www.w3.org/2000/svg">
<path d="M372.283 4.00048C404.64 205.39 473.811 262.56 668 287.188C469.86 316.83 403.953 379.993 372.283 580.864C350.782 409.243 294.075 341.742 90.5642 287.188C289.942 253.084 348.426 188.396 372.283 4.00048Z" fill="#E7BB4C"/>
<path d="M196.838 422C207.688 489.525 230.884 508.693 296.001 516.951C229.559 526.89 207.458 548.068 196.838 615.419C189.629 557.875 170.613 535.243 102.37 516.951C169.227 505.516 188.838 483.827 196.838 422Z" fill="white"/>
<path d="M141.296 -4.48934e-06C152.534 69.0056 176.557 88.5945 244 97.0334C175.185 107.19 152.295 128.833 141.296 197.661C133.829 138.855 114.134 115.726 43.4535 97.0334C112.698 85.3477 133.01 63.1825 141.296 -4.48934e-06Z" fill="white"/>
</svg>
