<svg width="461" height="925" viewBox="0 0 461 925" fill="none" xmlns="http://www.w3.org/2000/svg">
<path d="M294.5 623.2C297.5 623.2 300.2 622.3 302.6 620.5C304.4 618.1 305.3 615.4 305.3 612.4V583.6C305.3 553.6 297.8 529.6 282.8 511.6C267.2 493 245 473.5 216.2 453.1C192.8 436.9 175.4 422.5 164 409.9C152.6 397.3 146.9 382 146.9 364C146.9 344.8 154.1 329.5 168.5 318.1C182.9 306.1 201.8 300.1 225.2 300.1C250.4 300.1 270.8 306.4 286.4 319C301.4 331.6 308.9 347.8 308.9 367.6V382C308.9 388.6 312.5 391.9 319.7 391.9L425 387.4C428 387.4 430.7 386.5 433.1 384.7C434.9 382.3 435.8 379.6 435.8 376.6V367.6C435.8 331.6 426.8 299.8 408.8 272.2C390.8 244 365.9 222.4 334.1 207.4C301.7 191.8 264.5 184 222.5 184C181.7 184 146 191.5 115.4 206.5C84.2 220.9 60.2 241.3 43.4 267.7C26.6 294.1 18.2 324.7 18.2 359.5C18.2 385.9 23 408.7 32.6 427.9C41.6 446.5 52.7 461.8 65.9 473.8C79.1 485.8 95.9 499 116.3 513.4C137.9 528.4 153.8 541.3 164 552.1C174.2 562.9 179.3 576.1 179.3 591.7V612.4C179.3 615.4 180.5 618.1 182.9 620.5C184.7 622.3 187.1 623.2 190.1 623.2H294.5ZM245.9 824.8C266.3 824.8 283.4 818.2 297.2 805C310.4 791.2 317 774.1 317 753.7C317 733.3 310.4 716.5 297.2 703.3C284 690.1 266.9 683.5 245.9 683.5C224.9 683.5 208.1 690.1 195.5 703.3C182.3 715.9 175.7 732.7 175.7 753.7C175.7 774.1 182.3 791.2 195.5 805C208.7 818.2 225.5 824.8 245.9 824.8Z" fill="white"/>
<circle cx="73.5" cy="73.5" r="73.5" transform="matrix(-1 0 0 1 319 681)" fill="#E7BB4C"/>
</svg>
